<svg width="19" height="10" viewBox="0 0 19 10" fill="none" xmlns="http://www.w3.org/2000/svg">
<path d="M16.997 0.989027L9.49999 8.29703L2.00299 0.989027C1.86905 0.858193 1.68923 0.784947 1.50199 0.784947C1.31475 0.784947 1.13494 0.858193 1.00099 0.989027C0.936135 1.05257 0.884611 1.12842 0.849436 1.21213C0.814261 1.29584 0.796143 1.38573 0.796143 1.47653C0.796143 1.56733 0.814261 1.65721 0.849436 1.74092C0.884611 1.82463 0.936135 1.90048 1.00099 1.96403L8.97649 9.74003C9.11655 9.87655 9.3044 9.95295 9.49999 9.95295C9.69558 9.95295 9.88343 9.87655 10.0235 9.74003L17.999 1.96553C18.0643 1.90193 18.1162 1.8259 18.1517 1.74191C18.1871 1.65792 18.2054 1.56769 18.2054 1.47653C18.2054 1.38537 18.1871 1.29513 18.1517 1.21114C18.1162 1.12715 18.0643 1.05112 17.999 0.987526C17.865 0.856693 17.6852 0.783447 17.498 0.783447C17.3108 0.783447 17.1309 0.856693 16.997 0.987526V0.989027Z" fill="#151317"/>
</svg>
